<svg width="306" height="207" viewBox="0 0 306 207" fill="none" xmlns="http://www.w3.org/2000/svg">
<g filter="url(#filter0_d_423_2997)">
<rect x="122" y="122.6" width="60" height="60" rx="30" fill="white" shape-rendering="crispEdges"/>
<path d="M140.462 160.002H141.873V162.662C141.511 162.93 141.091 163.136 140.615 163.28C140.138 163.423 139.658 163.495 139.175 163.495C138.483 163.495 137.86 163.352 137.307 163.064C136.754 162.771 136.319 162.368 136.001 161.856C135.689 161.338 135.534 160.755 135.534 160.105C135.534 159.456 135.689 158.876 136.001 158.364C136.319 157.845 136.757 157.443 137.316 157.156C137.876 156.862 138.505 156.716 139.204 156.716C139.789 156.716 140.319 156.812 140.796 157.006C141.273 157.199 141.673 157.48 141.997 157.849L141.006 158.748C140.529 158.254 139.954 158.008 139.28 158.008C138.854 158.008 138.476 158.095 138.146 158.27C137.815 158.445 137.558 158.691 137.374 159.01C137.189 159.328 137.097 159.693 137.097 160.105C137.097 160.511 137.189 160.873 137.374 161.192C137.558 161.51 137.812 161.76 138.136 161.941C138.467 162.116 138.842 162.203 139.261 162.203C139.706 162.203 140.106 162.109 140.462 161.922V160.002Z" fill="#14181E"/>
<path d="M144.623 159.01C144.801 158.766 145.04 158.582 145.338 158.457C145.643 158.332 145.993 158.27 146.387 158.27V159.618C146.222 159.606 146.11 159.6 146.053 159.6C145.627 159.6 145.294 159.718 145.052 159.956C144.811 160.187 144.69 160.536 144.69 161.004V163.383H143.203V158.345H144.623V159.01Z" fill="#14181E"/>
<path d="M149.665 163.458C149.125 163.458 148.639 163.349 148.206 163.13C147.781 162.905 147.447 162.596 147.206 162.203C146.964 161.81 146.843 161.363 146.843 160.864C146.843 160.364 146.964 159.918 147.206 159.525C147.447 159.131 147.781 158.826 148.206 158.607C148.639 158.382 149.125 158.27 149.665 158.27C150.205 158.27 150.688 158.382 151.114 158.607C151.54 158.826 151.874 159.131 152.115 159.525C152.357 159.918 152.477 160.364 152.477 160.864C152.477 161.363 152.357 161.81 152.115 162.203C151.874 162.596 151.54 162.905 151.114 163.13C150.688 163.349 150.205 163.458 149.665 163.458ZM149.665 162.259C150.046 162.259 150.358 162.134 150.599 161.885C150.847 161.629 150.971 161.288 150.971 160.864C150.971 160.439 150.847 160.102 150.599 159.853C150.358 159.597 150.046 159.469 149.665 159.469C149.284 159.469 148.969 159.597 148.721 159.853C148.473 160.102 148.349 160.439 148.349 160.864C148.349 161.288 148.473 161.629 148.721 161.885C148.969 162.134 149.284 162.259 149.665 162.259Z" fill="#14181E"/>
<path d="M158.638 158.345V163.383H157.227V162.784C157.03 163.002 156.795 163.171 156.522 163.289C156.249 163.402 155.953 163.458 155.635 163.458C154.962 163.458 154.428 163.267 154.034 162.887C153.64 162.506 153.443 161.941 153.443 161.192V158.345H154.93V160.976C154.93 161.788 155.276 162.194 155.969 162.194C156.325 162.194 156.611 162.081 156.827 161.856C157.043 161.625 157.151 161.285 157.151 160.836V158.345H158.638Z" fill="#14181E"/>
<path d="M163.047 158.27C163.524 158.27 163.956 158.379 164.344 158.598C164.738 158.81 165.046 159.113 165.269 159.506C165.491 159.893 165.602 160.346 165.602 160.864C165.602 161.382 165.491 161.838 165.269 162.231C165.046 162.618 164.738 162.921 164.344 163.139C163.956 163.352 163.524 163.458 163.047 163.458C162.393 163.458 161.878 163.255 161.503 162.849V165.2H160.016V158.345H161.436V158.925C161.805 158.488 162.342 158.27 163.047 158.27ZM162.79 162.259C163.171 162.259 163.483 162.134 163.724 161.885C163.972 161.629 164.096 161.288 164.096 160.864C164.096 160.439 163.972 160.102 163.724 159.853C163.483 159.597 163.171 159.469 162.79 159.469C162.409 159.469 162.094 159.597 161.846 159.853C161.605 160.102 161.484 160.439 161.484 160.864C161.484 161.288 161.605 161.629 161.846 161.885C162.094 162.134 162.409 162.259 162.79 162.259Z" fill="#14181E"/>
<path d="M167.875 163.458C167.615 163.458 167.395 163.37 167.218 163.196C167.04 163.021 166.951 162.802 166.951 162.54C166.951 162.272 167.04 162.056 167.218 161.894C167.395 161.725 167.615 161.641 167.875 161.641C168.136 161.641 168.355 161.725 168.533 161.894C168.711 162.056 168.8 162.272 168.8 162.54C168.8 162.802 168.711 163.021 168.533 163.196C168.355 163.37 168.136 163.458 167.875 163.458Z" fill="#1400FF"/>
<path d="M137.335 149.65H135.2V148.414H141.015V149.65H138.88V154.969H137.335V149.65Z" fill="#14181E"/>
<path d="M143.05 150.596C143.228 150.352 143.466 150.168 143.765 150.043C144.07 149.918 144.42 149.856 144.814 149.856V151.204C144.648 151.192 144.537 151.186 144.48 151.186C144.054 151.186 143.72 151.304 143.479 151.541C143.237 151.772 143.117 152.122 143.117 152.59V154.969H141.63V149.931H143.05V150.596Z" fill="#14181E"/>
<path d="M147.739 149.856C148.533 149.856 149.143 150.043 149.569 150.418C149.995 150.786 150.208 151.345 150.208 152.094V154.969H148.816V154.341C148.536 154.809 148.015 155.044 147.252 155.044C146.858 155.044 146.515 154.978 146.223 154.847C145.937 154.716 145.718 154.535 145.565 154.304C145.412 154.073 145.336 153.811 145.336 153.517C145.336 153.049 145.514 152.681 145.87 152.412C146.232 152.144 146.788 152.01 147.538 152.01H148.72C148.72 151.691 148.622 151.448 148.425 151.279C148.228 151.104 147.932 151.017 147.538 151.017C147.265 151.017 146.995 151.061 146.728 151.148C146.467 151.229 146.245 151.342 146.061 151.485L145.527 150.464C145.807 150.271 146.14 150.121 146.528 150.015C146.922 149.909 147.325 149.856 147.739 149.856ZM147.624 154.06C147.878 154.06 148.104 154.004 148.301 153.892C148.498 153.773 148.638 153.601 148.72 153.377V152.862H147.7C147.09 152.862 146.785 153.058 146.785 153.452C146.785 153.639 146.858 153.789 147.005 153.901C147.157 154.007 147.364 154.06 147.624 154.06Z" fill="#14181E"/>
<path d="M153.184 150.043H154.499V151.167H153.222V154.969H151.735V151.167H150.943V150.043H151.735V149.818C151.735 149.244 151.906 148.788 152.249 148.451C152.599 148.114 153.088 147.945 153.718 147.945C153.94 147.945 154.15 147.97 154.347 148.02C154.55 148.064 154.719 148.13 154.852 148.217L154.461 149.275C154.29 149.157 154.089 149.097 153.861 149.097C153.409 149.097 153.184 149.341 153.184 149.828V150.043Z" fill="#14181E"/>
<path d="M156.87 150.043H158.186V151.167H156.908V154.969H155.421V151.167H154.63V150.043H155.421V149.818C155.421 149.244 155.593 148.788 155.936 148.451C156.286 148.114 156.775 147.945 157.404 147.945C157.627 147.945 157.836 147.97 158.033 148.02C158.237 148.064 158.405 148.13 158.539 148.217L158.148 149.275C157.976 149.157 157.776 149.097 157.547 149.097C157.096 149.097 156.87 149.341 156.87 149.828V150.043ZM159.692 149.931H161.179V154.969H159.692V149.931ZM160.436 149.228C160.162 149.228 159.94 149.15 159.768 148.994C159.597 148.838 159.511 148.645 159.511 148.414C159.511 148.183 159.597 147.989 159.768 147.833C159.94 147.677 160.162 147.599 160.436 147.599C160.709 147.599 160.931 147.674 161.103 147.824C161.275 147.974 161.36 148.161 161.36 148.386C161.36 148.629 161.275 148.832 161.103 148.994C160.931 149.15 160.709 149.228 160.436 149.228Z" fill="#14181E"/>
<path d="M165.036 155.044C164.49 155.044 163.997 154.934 163.558 154.716C163.126 154.491 162.786 154.182 162.538 153.789C162.297 153.395 162.176 152.949 162.176 152.45C162.176 151.95 162.297 151.504 162.538 151.111C162.786 150.717 163.126 150.411 163.558 150.193C163.997 149.968 164.49 149.856 165.036 149.856C165.576 149.856 166.047 149.968 166.447 150.193C166.854 150.411 167.149 150.727 167.334 151.139L166.18 151.747C165.913 151.285 165.529 151.054 165.027 151.054C164.639 151.054 164.318 151.179 164.064 151.429C163.81 151.679 163.682 152.019 163.682 152.45C163.682 152.88 163.81 153.221 164.064 153.47C164.318 153.72 164.639 153.845 165.027 153.845C165.535 153.845 165.919 153.614 166.18 153.152L167.334 153.77C167.149 154.17 166.854 154.482 166.447 154.706C166.047 154.931 165.576 155.044 165.036 155.044Z" fill="#14181E"/>
<path d="M138.842 140C139.433 140 139.944 140.096 140.376 140.29C140.815 140.483 141.152 140.758 141.387 141.114C141.622 141.47 141.74 141.891 141.74 142.378C141.74 142.859 141.622 143.28 141.387 143.642C141.152 143.998 140.815 144.273 140.376 144.466C139.944 144.654 139.433 144.747 138.842 144.747H137.497V146.554H135.953V140H138.842ZM138.756 143.511C139.22 143.511 139.572 143.414 139.814 143.221C140.056 143.021 140.176 142.74 140.176 142.378C140.176 142.01 140.056 141.729 139.814 141.535C139.572 141.335 139.22 141.236 138.756 141.236H137.497V143.511H138.756Z" fill="#14181E"/>
<path d="M144.158 142.181C144.336 141.938 144.574 141.754 144.873 141.629C145.178 141.504 145.527 141.442 145.921 141.442V142.79C145.756 142.778 145.645 142.771 145.588 142.771C145.162 142.771 144.828 142.89 144.587 143.127C144.345 143.358 144.225 143.708 144.225 144.176V146.554H142.737V141.517H144.158V142.181Z" fill="#14181E"/>
<path d="M149.2 146.629C148.659 146.629 148.173 146.52 147.741 146.302C147.315 146.077 146.982 145.768 146.74 145.375C146.499 144.981 146.378 144.535 146.378 144.035C146.378 143.536 146.499 143.09 146.74 142.696C146.982 142.303 147.315 141.997 147.741 141.779C148.173 141.554 148.659 141.442 149.2 141.442C149.74 141.442 150.223 141.554 150.649 141.779C151.074 141.997 151.408 142.303 151.65 142.696C151.891 143.09 152.012 143.536 152.012 144.035C152.012 144.535 151.891 144.981 151.65 145.375C151.408 145.768 151.074 146.077 150.649 146.302C150.223 146.52 149.74 146.629 149.2 146.629ZM149.2 145.431C149.581 145.431 149.892 145.306 150.134 145.056C150.382 144.8 150.506 144.46 150.506 144.035C150.506 143.611 150.382 143.274 150.134 143.024C149.892 142.768 149.581 142.64 149.2 142.64C148.818 142.64 148.504 142.768 148.256 143.024C148.008 143.274 147.884 143.611 147.884 144.035C147.884 144.46 148.008 144.8 148.256 145.056C148.504 145.306 148.818 145.431 149.2 145.431Z" fill="#14181E"/>
</g>
<defs>
<filter id="filter0_d_423_2997" x="0" y="0.599609" width="306" height="306" filterUnits="userSpaceOnUse" color-interpolation-filters="sRGB">
<feFlood flood-opacity="0" result="BackgroundImageFix"/>
<feColorMatrix in="SourceAlpha" type="matrix" values="0 0 0 0 0 0 0 0 0 0 0 0 0 0 0 0 0 0 127 0" result="hardAlpha"/>
<feOffset dx="1" dy="1"/>
<feGaussianBlur stdDeviation="61.5"/>
<feComposite in2="hardAlpha" operator="out"/>
<feColorMatrix type="matrix" values="0 0 0 0 0 0 0 0 0 0 0 0 0 0 0 0 0 0 0.15 0"/>
<feBlend mode="normal" in2="BackgroundImageFix" result="effect1_dropShadow_423_2997"/>
<feBlend mode="normal" in="SourceGraphic" in2="effect1_dropShadow_423_2997" result="shape"/>
</filter>
</defs>
</svg>
