<svg width="34" height="26" viewBox="0 0 34 26" fill="none" xmlns="http://www.w3.org/2000/svg">
<path d="M5.46225 20.0024H6.87314V22.6618C6.51088 22.9302 6.09143 23.1363 5.61478 23.2798C5.13812 23.4234 4.65829 23.4952 4.17529 23.4952C3.48255 23.4952 2.85973 23.3516 2.30681 23.0645C1.7539 22.7711 1.31855 22.3684 1.00079 21.8565C0.689375 21.3383 0.533668 20.7546 0.533668 20.1054C0.533668 19.4561 0.689375 18.8755 1.00079 18.3636C1.31855 17.8455 1.75707 17.4428 2.31635 17.1556C2.87562 16.8622 3.5048 16.7155 4.20389 16.7155C4.78858 16.7155 5.31925 16.8123 5.7959 17.0058C6.27255 17.1993 6.67294 17.4803 6.99707 17.8486L6.00563 18.7476C5.52898 18.2544 4.95382 18.0078 4.28015 18.0078C3.85434 18.0078 3.4762 18.0952 3.14572 18.27C2.81524 18.4448 2.55785 18.6914 2.37354 19.0098C2.18924 19.3281 2.09709 19.6933 2.09709 20.1054C2.09709 20.5112 2.18924 20.8732 2.37354 21.1916C2.55785 21.51 2.81206 21.7597 3.13619 21.9408C3.46666 22.1156 3.84163 22.203 4.26108 22.203C4.70596 22.203 5.10635 22.1093 5.46225 21.922V20.0024Z" fill="#14181E"/>
<path d="M9.62327 19.0098C9.80122 18.7663 10.0395 18.5821 10.3382 18.4573C10.6433 18.3324 10.9928 18.27 11.3869 18.27V19.6184C11.2216 19.6059 11.1104 19.5997 11.0532 19.5997C10.6274 19.5997 10.2938 19.7183 10.0523 19.9555C9.81075 20.1865 9.69 20.5361 9.69 21.0043V23.3829H8.20284V18.3449H9.62327V19.0098Z" fill="#14181E"/>
<path d="M14.665 23.4578C14.1248 23.4578 13.6387 23.3485 13.2065 23.13C12.7807 22.9053 12.447 22.5963 12.2055 22.203C11.964 21.8097 11.8433 21.3633 11.8433 20.8639C11.8433 20.3645 11.964 19.9181 12.2055 19.5248C12.447 19.1315 12.7807 18.8256 13.2065 18.6071C13.6387 18.3824 14.1248 18.27 14.665 18.27C15.2053 18.27 15.6883 18.3824 16.1141 18.6071C16.5399 18.8256 16.8735 19.1315 17.115 19.5248C17.3565 19.9181 17.4773 20.3645 17.4773 20.8639C17.4773 21.3633 17.3565 21.8097 17.115 22.203C16.8735 22.5963 16.5399 22.9053 16.1141 23.13C15.6883 23.3485 15.2053 23.4578 14.665 23.4578ZM14.665 22.2591C15.0464 22.2591 15.3578 22.1343 15.5993 21.8846C15.8471 21.6286 15.9711 21.2884 15.9711 20.8639C15.9711 20.4394 15.8471 20.1023 15.5993 19.8525C15.3578 19.5966 15.0464 19.4686 14.665 19.4686C14.2837 19.4686 13.9691 19.5966 13.7213 19.8525C13.4734 20.1023 13.3495 20.4394 13.3495 20.8639C13.3495 21.2884 13.4734 21.6286 13.7213 21.8846C13.9691 22.1343 14.2837 22.2591 14.665 22.2591Z" fill="#14181E"/>
<path d="M23.6382 18.3449V23.3829H22.2274V22.7835C22.0303 23.002 21.7952 23.1706 21.5219 23.2892C21.2486 23.4016 20.9531 23.4578 20.6353 23.4578C19.9617 23.4578 19.4278 23.2674 19.0338 22.8865C18.6398 22.5057 18.4427 21.9408 18.4427 21.1916V18.3449H19.9299V20.9762C19.9299 21.7878 20.2763 22.1936 20.969 22.1936C21.3249 22.1936 21.6109 22.0812 21.827 21.8565C22.043 21.6255 22.1511 21.2853 22.1511 20.8358V18.3449H23.6382Z" fill="#14181E"/>
<path d="M28.0475 18.27C28.5241 18.27 28.9563 18.3792 29.344 18.5977C29.738 18.81 30.0462 19.1128 30.2687 19.5061C30.4911 19.8931 30.6023 20.3457 30.6023 20.8639C30.6023 21.382 30.4911 21.8378 30.2687 22.2311C30.0462 22.6181 29.738 22.9209 29.344 23.1394C28.9563 23.3516 28.5241 23.4578 28.0475 23.4578C27.3929 23.4578 26.8781 23.2549 26.5031 22.8491V25.1995H25.016V18.3449H26.4364V18.9255C26.805 18.4885 27.342 18.27 28.0475 18.27ZM27.7901 22.2591C28.1714 22.2591 28.4828 22.1343 28.7243 21.8846C28.9722 21.6286 29.0961 21.2884 29.0961 20.8639C29.0961 20.4394 28.9722 20.1023 28.7243 19.8525C28.4828 19.5966 28.1714 19.4686 27.7901 19.4686C27.4088 19.4686 27.0942 19.5966 26.8463 19.8525C26.6048 20.1023 26.4841 20.4394 26.4841 20.8639C26.4841 21.2884 26.6048 21.6286 26.8463 21.8846C27.0942 22.1343 27.4088 22.2591 27.7901 22.2591Z" fill="#14181E"/>
<path d="M32.8753 23.4578C32.6147 23.4578 32.3955 23.3704 32.2175 23.1956C32.0396 23.0208 31.9506 22.8023 31.9506 22.5401C31.9506 22.2716 32.0396 22.0563 32.2175 21.8939C32.3955 21.7254 32.6147 21.6411 32.8753 21.6411C33.1359 21.6411 33.3551 21.7254 33.5331 21.8939C33.711 22.0563 33.8 22.2716 33.8 22.5401C33.8 22.8023 33.711 23.0208 33.5331 23.1956C33.3551 23.3704 33.1359 23.4578 32.8753 23.4578Z" fill="#1400FF"/>
<path d="M2.33541 9.64978H0.200012V8.4137H6.01516V9.64978H3.87976V14.9687H2.33541V9.64978Z" fill="#14181E"/>
<path d="M8.04994 10.5956C8.22789 10.3521 8.46622 10.1679 8.76492 10.0431C9.06998 9.91822 9.41952 9.85579 9.81355 9.85579V11.2042C9.64831 11.1918 9.5371 11.1855 9.4799 11.1855C9.05409 11.1855 8.72043 11.3041 8.47893 11.5413C8.23743 11.7723 8.11667 12.1219 8.11667 12.5901V14.9687H6.62952V9.9307H8.04994V10.5956Z" fill="#14181E"/>
<path d="M12.7386 9.85579C13.533 9.85579 14.1431 10.0431 14.5689 10.4176C14.9947 10.786 15.2076 11.3447 15.2076 12.0938V14.9687H13.8158V14.3413C13.5362 14.8095 13.015 15.0436 12.2524 15.0436C11.8583 15.0436 11.5152 14.978 11.2228 14.8469C10.9368 14.7158 10.7176 14.5348 10.565 14.3038C10.4125 14.0728 10.3362 13.8106 10.3362 13.5172C10.3362 13.049 10.5142 12.6807 10.8701 12.4122C11.2323 12.1438 11.7884 12.0096 12.5384 12.0096H13.7205C13.7205 11.6912 13.622 11.4477 13.4249 11.2792C13.2279 11.1044 12.9324 11.017 12.5384 11.017C12.2651 11.017 11.995 11.0607 11.7281 11.1481C11.4675 11.2292 11.245 11.3416 11.0607 11.4852L10.5269 10.4645C10.8065 10.2709 11.1402 10.1211 11.5279 10.015C11.9219 9.90885 12.3255 9.85579 12.7386 9.85579ZM12.6242 14.0603C12.8784 14.0603 13.104 14.0041 13.301 13.8918C13.498 13.7732 13.6378 13.6015 13.7205 13.3767V12.8617H12.7004C12.0903 12.8617 11.7853 13.0584 11.7853 13.4517C11.7853 13.6389 11.8583 13.7888 12.0045 13.9011C12.157 14.0073 12.3636 14.0603 12.6242 14.0603Z" fill="#14181E"/>
<path d="M18.1837 10.0431H19.4993V11.1668H18.2218V14.9687H16.7347V11.1668H15.9434V10.0431H16.7347V9.81833C16.7347 9.24399 16.9063 8.78827 17.2495 8.45115C17.599 8.11404 18.0884 7.94549 18.7176 7.94549C18.94 7.94549 19.1497 7.97046 19.3467 8.0204C19.5501 8.0641 19.7185 8.12965 19.852 8.21705L19.4611 9.27521C19.2895 9.15659 19.0893 9.09729 18.8606 9.09729C18.4093 9.09729 18.1837 9.34076 18.1837 9.8277V10.0431Z" fill="#14181E"/>
<path d="M21.8703 10.0431H23.1859V11.1668H21.9084V14.9687H20.4213V11.1668H19.63V10.0431H20.4213V9.81833C20.4213 9.24399 20.5929 8.78827 20.9361 8.45115C21.2856 8.11404 21.775 7.94549 22.4042 7.94549C22.6266 7.94549 22.8363 7.97046 23.0333 8.0204C23.2367 8.0641 23.4051 8.12965 23.5386 8.21705L23.1477 9.27521C22.9761 9.15659 22.7759 9.09729 22.5472 9.09729C22.0959 9.09729 21.8703 9.34076 21.8703 9.8277V10.0431ZM24.6921 9.9307H26.1792V14.9687H24.6921V9.9307ZM25.4357 9.22838C25.1624 9.22838 24.9399 9.15035 24.7684 8.99428C24.5968 8.83821 24.511 8.64468 24.511 8.4137C24.511 8.18271 24.5968 7.98919 24.7684 7.83312C24.9399 7.67705 25.1624 7.59901 25.4357 7.59901C25.7089 7.59901 25.9314 7.67392 26.103 7.82375C26.2746 7.97358 26.3604 8.16086 26.3604 8.38561C26.3604 8.62908 26.2746 8.83197 26.103 8.99428C25.9314 9.15035 25.7089 9.22838 25.4357 9.22838Z" fill="#14181E"/>
<path d="M30.0361 15.0436C29.4895 15.0436 28.997 14.9343 28.5585 14.7158C28.1263 14.4911 27.7863 14.1821 27.5384 13.7888C27.2969 13.3955 27.1762 12.9491 27.1762 12.4497C27.1762 11.9503 27.2969 11.5039 27.5384 11.1106C27.7863 10.7173 28.1263 10.4114 28.5585 10.1929C28.997 9.96816 29.4895 9.85579 30.0361 9.85579C30.5763 9.85579 31.0466 9.96816 31.447 10.1929C31.8537 10.4114 32.1493 10.7267 32.3336 11.1387L31.1801 11.7474C30.9131 11.2854 30.5286 11.0544 30.0266 11.0544C29.6389 11.0544 29.3179 11.1793 29.0637 11.429C28.8095 11.6787 28.6824 12.0189 28.6824 12.4497C28.6824 12.8804 28.8095 13.2207 29.0637 13.4704C29.3179 13.7201 29.6389 13.8449 30.0266 13.8449C30.535 13.8449 30.9195 13.614 31.1801 13.152L32.3336 13.77C32.1493 14.1696 31.8537 14.4817 31.447 14.7065C31.0466 14.9312 30.5763 15.0436 30.0361 15.0436Z" fill="#14181E"/>
<path d="M3.84163 -0.000488281C4.43268 -0.000488281 4.94429 0.0962754 5.37645 0.289803C5.81497 0.48333 6.1518 0.758014 6.38695 1.11385C6.6221 1.46969 6.73967 1.89109 6.73967 2.37802C6.73967 2.85872 6.6221 3.28011 6.38695 3.64219C6.1518 3.99804 5.81497 4.27272 5.37645 4.46625C4.94429 4.65353 4.43268 4.74717 3.84163 4.74717H2.49747V6.55447H0.953122V-0.000488281H3.84163ZM3.75583 3.5111C4.21977 3.5111 4.5725 3.41433 4.814 3.2208C5.0555 3.02103 5.17626 2.74011 5.17626 2.37802C5.17626 2.0097 5.0555 1.72877 4.814 1.53524C4.5725 1.33547 4.21977 1.23559 3.75583 1.23559H2.49747V3.5111H3.75583Z" fill="#14181E"/>
<path d="M9.15779 2.18138C9.33574 1.93791 9.57406 1.75374 9.87276 1.62889C10.1778 1.50403 10.5274 1.4416 10.9214 1.4416V2.79005C10.7562 2.77757 10.6449 2.77132 10.5877 2.77132C10.1619 2.77132 9.82828 2.88994 9.58677 3.12716C9.34527 3.35815 9.22452 3.70774 9.22452 4.17596V6.55447H7.73736V1.51652H9.15779V2.18138Z" fill="#14181E"/>
<path d="M14.1996 6.62938C13.6594 6.62938 13.1732 6.52013 12.741 6.30163C12.3152 6.07689 11.9816 5.76787 11.74 5.37458C11.4985 4.98128 11.3778 4.53492 11.3778 4.03549C11.3778 3.53607 11.4985 3.08971 11.74 2.69641C11.9816 2.30311 12.3152 1.99721 12.741 1.77871C13.1732 1.55397 13.6594 1.4416 14.1996 1.4416C14.7398 1.4416 15.2228 1.55397 15.6486 1.77871C16.0744 1.99721 16.4081 2.30311 16.6496 2.69641C16.8911 3.08971 17.0118 3.53607 17.0118 4.03549C17.0118 4.53492 16.8911 4.98128 16.6496 5.37458C16.4081 5.76787 16.0744 6.07689 15.6486 6.30163C15.2228 6.52013 14.7398 6.62938 14.1996 6.62938ZM14.1996 5.43076C14.5809 5.43076 14.8923 5.30591 15.1338 5.05619C15.3817 4.80024 15.5056 4.46 15.5056 4.03549C15.5056 3.61098 15.3817 3.27387 15.1338 3.02416C14.8923 2.7682 14.5809 2.64022 14.1996 2.64022C13.8182 2.64022 13.5037 2.7682 13.2558 3.02416C13.0079 3.27387 12.884 3.61098 12.884 4.03549C12.884 4.46 13.0079 4.80024 13.2558 5.05619C13.5037 5.30591 13.8182 5.43076 14.1996 5.43076Z" fill="#14181E"/>
</svg>
